<svg version="1.1" viewBox="0.0 0.0 364.01574803149606 232.0" fill="none" stroke="none" stroke-linecap="square" stroke-miterlimit="10" xmlns:xlink="http://www.w3.org/1999/xlink" xmlns="http://www.w3.org/2000/svg"><clipPath id="p.0"><path d="m0 0l364.01575 0l0 232.0l-364.01575 0l0 -232.0z" clip-rule="nonzero"/></clipPath><g clip-path="url(#p.0)"><path fill="#000000" fill-opacity="0.0" d="m0 0l364.01575 0l0 232.0l-364.01575 0z" fill-rule="evenodd"/><path fill="#411f08" d="m232.08632 206.824l0 0c-14.124573 -20.25624 -16.359634 -43.107346 -4.9921265 -51.039368l0 0c5.4588623 -3.8090973 13.388626 -3.597992 22.04483 0.58688354c8.656204 4.18486 17.329788 12.000687 24.112656 21.728073l0 0c14.124573 20.25624 16.35962 43.107346 4.9921265 51.039368l0 0c-11.367523 7.9320374 -32.032913 -2.0587158 -46.157486 -22.314957z" fill-rule="evenodd"/><path fill="#562c11" d="m233.58632 205.324l0 0c-14.124573 -20.25624 -16.359634 -43.107346 -4.9921265 -51.039368l0 0c5.4588623 -3.8090973 13.388626 -3.597992 22.04483 0.58688354c8.656204 4.18486 17.329788 12.000687 24.112656 21.728073l0 0c14.124573 20.25624 16.35962 43.107346 4.9921265 51.039368l0 0c-11.367523 7.9320374 -32.032913 -2.0587158 -46.157486 -22.314957z" fill-rule="evenodd"/><path fill="#411f08" d="m235.44489 204.01529l0 0c-13.046097 -18.7081 -15.238846 -39.718994 -4.897644 -46.92914l0 0c4.9660187 -3.4624329 12.217392 -3.2141876 20.158905 0.69010925c7.941498 3.9042969 15.922607 11.144836 22.187561 20.128784l0 0c13.046082 18.7081 15.238831 39.718994 4.897644 46.92914l0 0c-10.341217 7.210144 -29.30037 -2.110794 -42.346466 -20.818893z" fill-rule="evenodd"/><path fill="#000000" fill-opacity="0.0" d="m231.85695 158.58746l47.244095 67.74803" fill-rule="evenodd"/><path stroke="#562c11" stroke-width="2.0" stroke-linejoin="round" stroke-linecap="butt" d="m231.85695 158.58746l47.244095 67.74803" fill-rule="evenodd"/><path fill="#000000" fill-opacity="0.0" d="m258.94217 225.64539l-6.9291534 -66.3622" fill-rule="evenodd"/><path stroke="#562c11" stroke-width="2.0" stroke-linejoin="round" stroke-linecap="butt" d="m258.94217 225.64539l-6.9291534 -66.3622" fill-rule="evenodd"/><path fill="#000000" fill-opacity="0.0" d="m225.53554 177.7403l59.87401 29.448822" fill-rule="evenodd"/><path stroke="#562c11" stroke-width="2.0" stroke-linejoin="round" stroke-linecap="butt" d="m225.53554 177.7403l59.87401 29.448822" fill-rule="evenodd"/><path fill="#000000" fill-opacity="0.0" d="m236.7546 205.5166l37.448807 -26.110245" fill-rule="evenodd"/><path stroke="#562c11" stroke-width="2.0" stroke-linejoin="round" stroke-linecap="butt" d="m236.7546 205.5166l37.448807 -26.110245" fill-rule="evenodd"/><path fill="#291405" d="m107.791336 180.22835l65.50107 -68.314964l173.01863 0l-65.50107 68.314964z" fill-rule="evenodd"/><path fill="#fffcf5" d="m346.2953 111.91338l-20.002716 -30.48819l-171.49336 0l20.0027 30.48819z" fill-rule="evenodd"/><path fill="#411f08" d="m308.09155 140.77939l0 0c-14.124573 -20.25624 -16.35962 -43.107346 -4.9921265 -51.039368l0 0c5.4588623 -3.8090973 13.388641 -3.597992 22.04486 0.5868759c8.656189 4.184868 17.329773 12.000694 24.11264 21.72808l0 0c14.124573 20.25624 16.35962 43.107346 4.9921265 51.039368l0 0c-11.367523 7.932022 -32.03293 -2.0587158 -46.1575 -22.314957z" fill-rule="evenodd"/><path fill="#562c11" d="m309.59155 139.27939l0 0c-14.124573 -20.25624 -16.35962 -43.107346 -4.9921265 -51.039368l0 0c5.4588623 -3.8090973 13.388641 -3.597992 22.04486 0.5868759c8.656189 4.184868 17.329773 12.000694 24.11264 21.72808l0 0c14.124573 20.25624 16.35962 43.107346 4.9921265 51.039368l0 0c-11.367523 7.932022 -32.03293 -2.0587158 -46.1575 -22.314957z" fill-rule="evenodd"/><path fill="#fffcf5" d="m107.0722 180.23152l-20.318726 -31.145844l68.035255 -68.03526l20.318726 31.145836z" fill-rule="evenodd"/><path fill="#fffcf5" d="m216.10104 20.614174l0 0c0 -10.49776 17.972076 -19.007875 40.141724 -19.007875l0 0c22.169678 0 40.141754 8.510115 40.141754 19.007875l0 0c0 10.497759 -17.972076 19.007874 -40.141754 19.007874l0 0c-22.169647 0 -40.141724 -8.510115 -40.141724 -19.007874z" fill-rule="evenodd"/><path fill="#fffcf5" d="m285.3714 53.417324l-33.992188 -51.811024l-187.58263 0l33.992176 51.811024z" fill-rule="evenodd"/><path fill="#faf4e8" d="m154.79921 84.08137l2.142929 -17.16536l171.84134 0l-2.1429443 17.16536z" fill-rule="evenodd"/><path fill="#faf4e8" d="m180.521 84.08137l-13.425888 -17.16536l-28.999313 0l13.425888 17.16536z" fill-rule="evenodd"/><path fill="#f5f0e5" d="m65.07703 117.645676l-29.19685 -41.039368l0 0c-16.124975 -22.665417 -12.402241 -52.990192 8.3149605 -67.732285c20.717201 -14.742088 50.583687 -8.318961 66.708664 14.346457l29.196846 41.039368z" fill-rule="evenodd"/><path fill="#cdc5b7" d="m79.42623 137.56955l-33.92126 -47.65355l0 0c-18.734196 -26.318321 -17.126652 -59.604362 3.5905495 -74.34645c20.717201 -14.742089 52.698875 -5.3576956 71.433075 20.960632l33.92125 47.653545z" fill-rule="evenodd"/><path fill="#faf4e8" d="m88.54199 150.83989l-12.379311 -18.297852l66.8675 -66.8675l12.379318 18.29786z" fill-rule="evenodd"/><path fill="#fffcf5" d="m328.78348 66.91601l-33.992188 -51.81102l-187.58263 0l33.992172 51.81102z" fill-rule="evenodd"/><path fill="#000000" fill-opacity="0.0" d="m222.53412 163.19554l-218.48819 0" fill-rule="evenodd"/><path stroke="#291405" stroke-width="8.0" stroke-linejoin="round" stroke-linecap="butt" d="m222.53412 163.19554l-218.48819 0" fill-rule="evenodd"/><path fill="#000000" fill-opacity="0.0" d="m236.28477 128.9462l-193.51181 0" fill-rule="evenodd"/><path stroke="#291405" stroke-width="8.0" stroke-linejoin="round" stroke-linecap="butt" d="m236.28477 128.9462l-193.51181 0" fill-rule="evenodd"/><path fill="#291405" d="m38.87008 128.94751l0 0c0 -2.2352371 1.8120117 -4.047249 4.047245 -4.047249l0 0c1.0733948 0 2.1028252 0.42640686 2.8618317 1.1854095c0.7590065 0.7590103 1.1854095 1.7884369 1.1854095 2.8618393l0 0c0 2.2352295 -1.8120117 4.047241 -4.047241 4.047241l0 0c-2.2352333 0 -4.047245 -1.8120117 -4.047245 -4.047241z" fill-rule="evenodd"/><path fill="#291405" d="m0.62073493 163.19685l0 0c0 -2.2352295 1.8120129 -4.047241 4.047244 -4.047241l0 0c1.0733957 0 2.102828 0.4263916 2.8618336 1.1854095c0.75900555 0.7590027 1.1854105 1.7884369 1.1854105 2.8618317l0 0c0 2.2352295 -1.8120131 4.047241 -4.047244 4.047241l0 0c-2.2352314 0 -4.047244 -1.8120117 -4.047244 -4.047241z" fill-rule="evenodd"/><path fill="#411f08" d="m311.05905 138.06516l0 0c-13.046082 -18.708107 -15.238831 -39.718994 -4.897644 -46.92914l0 0c4.966034 -3.4624329 12.217407 -3.2141876 20.158905 0.69010925c7.941498 3.9043045 15.922607 11.144844 22.187561 20.128792l0 0c13.046112 18.708107 15.238831 39.718987 4.897644 46.92913l0 0c-10.341217 7.210144 -29.300354 -2.110794 -42.346466 -20.818893z" fill-rule="evenodd"/><path fill="#000000" fill-opacity="0.0" d="m306.1614 91.13602l47.24411 67.74803" fill-rule="evenodd"/><path stroke="#562c11" stroke-width="2.0" stroke-linejoin="round" stroke-linecap="butt" d="m306.1614 91.13602l47.24411 67.74803" fill-rule="evenodd"/><path fill="#000000" fill-opacity="0.0" d="m333.2466 158.19394l-6.929138 -66.3622" fill-rule="evenodd"/><path stroke="#562c11" stroke-width="2.0" stroke-linejoin="round" stroke-linecap="butt" d="m333.2466 158.19394l-6.929138 -66.3622" fill-rule="evenodd"/><path fill="#000000" fill-opacity="0.0" d="m299.84 110.28885l59.874023 29.448822" fill-rule="evenodd"/><path stroke="#562c11" stroke-width="2.0" stroke-linejoin="round" stroke-linecap="butt" d="m299.84 110.28885l59.874023 29.448822" fill-rule="evenodd"/><path fill="#000000" fill-opacity="0.0" d="m311.05905 138.06516l37.448822 -26.110237" fill-rule="evenodd"/><path stroke="#562c11" stroke-width="2.0" stroke-linejoin="round" stroke-linecap="butt" d="m311.05905 138.06516l37.448822 -26.110237" fill-rule="evenodd"/><path fill="#000000" fill-opacity="0.0" d="m115.54091 -5.79904l180.37794 -0.44094467l34.70868 83.937004l-180.37796 0.4409485z" fill-rule="evenodd"/><path fill="#841617" d="m197.03802 36.53186q-3.4687347 0.008480072 -7.0306396 -1.6078186q-3.568344 -1.6319046 -6.459091 -4.4998474q-2.8751373 -2.867979 -4.36615 -6.4737206q-1.4845428 -3.5901318 -0.98469543 -6.466362q0.5090332 -2.8918781 2.7348328 -4.5066996q2.2257843 -1.6148205 5.6945343 -1.6233006q3.4687347 -0.008479118 7.008545 1.592247q3.5398102 1.6007271 6.405777 4.484355q2.8751373 2.867979 4.35968 6.458111q1.4910126 3.6057415 0.9911499 6.4819717q-0.4842224 2.876194 -2.697113 4.522232q-2.219345 1.6304283 -5.65683 1.6388321zm-2.969101 -7.1802616q2.28125 -0.0055770874 2.9245148 -1.4759045q0.6432648 -1.4703274 -0.38946533 -3.9678097q-1.045639 -2.5287018 -2.9023743 -3.992916q-1.85672 -1.4642162 -4.1379547 -1.4586391q-2.3125 0.0056533813 -2.9557648 1.4759789q-0.6432648 1.4703274 0.40237427 3.9990292q1.0327301 2.4974823 2.88945 3.9616985q1.85672 1.4642162 4.16922 1.4585629zm15.6037445 -17.631947l5.7122955 13.814202q0.6970978 1.6858006 1.8601837 2.6829605q1.1566315 0.9815502 2.8128815 0.9775028q1.6718597 -0.004087448 2.0621033 -0.98941994q0.3837738 -1.0009403 -0.31330872 -2.6867428l-5.7122955 -13.814201l7.6562347 -0.018715858l5.7122803 13.814202q1.4458313 3.4964752 1.0033569 5.9819393q-0.43330383 2.4698162 -2.4481812 3.7247448q-1.9992523 1.2548943 -5.124237 1.2625313q-3.125 0.0076408386 -6.0476074 -1.235218q-2.9226074 -1.2428589 -5.295334 -3.6901932q-2.3635712 -2.4629784 -3.8223114 -5.990673l-5.7122803 -13.814203l7.6562195 -0.018715858z" fill-rule="nonzero"/><path fill="#841617" d="m160.27257 62.736813q-1.875 0.004585266 -3.7989502 -0.865715q-1.9083252 -0.87033844 -3.4691925 -2.4134026q-1.5452576 -1.5431023 -2.3456116 -3.4786491q-0.80036926 -1.9355507 -0.53312683 -3.4830856q0.27641296 -1.563179 1.468277 -2.4254684q1.2010498 -0.87794113 3.0760345 -0.8825226q1.859375 -0.004547119 3.7677002 0.8657913q1.9018707 0.8547287 3.4535828 2.4134407q1.5452423 1.5431023 2.3456116 3.4786491q0.80036926 1.9355507 0.5331116 3.4830818q-0.26724243 1.547535 -1.468277 2.4254723q-1.1854095 0.877903 -3.0291595 0.88240814zm-1.594284 -3.8554878q1.21875 -0.0029792786 1.5679016 -0.7850876q0.34268188 -0.79771423 -0.21240234 -2.14011q-0.56155396 -1.3580055 -1.5626068 -2.152439q-1.0010529 -0.7944298 -2.2198029 -0.7914505q-1.25 0.0030555725 -1.5926819 0.8007736q-0.34269714 0.79771423 0.21885681 2.1557198q0.5550842 1.3423958 1.5561371 2.1368256q0.99461365 0.77882385 2.2445984 0.7757683zm6.694519 -2.9070015q-0.80682373 -1.9511566 -0.65812683 -3.4827766q0.1643219 -1.5316544 1.2845306 -2.3781471q1.129364 -0.86213684 3.129364 -0.8670273q1.7187347 -0.0041999817 3.3335724 0.6481056q1.6240082 0.6366539 2.9518585 1.8052864q1.3278351 1.1686325 2.254547 2.7288742l-4.359375 0.010654449q-0.5615082 -0.6392517 -1.2724609 -0.996891q-0.7017822 -0.3732872 -1.4049072 -0.37156677q-1.046875 0.0025596619 -1.3335114 0.78451157q-0.2866516 0.7819557 0.2619934 2.1087418q0.54862976 1.326786 1.4807434 2.1057625q0.9320984 0.7789726 1.9789734 0.77641296q0.70310974 -0.0017166138 1.101532 -0.36206818q0.41404724 -0.3603897 0.4398346 -1.0167046l4.3593597 -0.010654449q0.36419678 1.561615 0.011001587 2.749981q-0.35964966 1.1727562 -1.4543915 1.8160591q-1.0791016 0.6432648 -2.7978516 0.64746857q-1.9999847 0.004886627 -3.8329163 -0.8343849q-1.8237457 -0.85491943 -3.2531586 -2.382679q-1.4138031 -1.5277977 -2.2206116 -3.4789581zm14.048111 -0.034339905q-0.80682373 -1.9511566 -0.65812683 -3.4827766q0.16433716 -1.5316544 1.2845306 -2.3781471q1.129364 -0.86213684 3.129364 -0.8670273q1.71875 -0.0041999817 3.3335876 0.6481018q1.6240082 0.6366577 2.9518433 1.8052902q1.3278351 1.1686325 2.254547 2.7288704l-4.3593597 0.010658264q-0.56152344 -0.6392555 -1.2724762 -0.996891q-0.7017822 -0.3732872 -1.4049072 -0.37156677q-1.0468597 0.0025558472 -1.3335114 0.78451157q-0.28663635 0.7819519 0.2619934 2.1087418q0.548645 1.326786 1.4807434 2.1057587q0.9320984 0.77897644 1.9789734 0.7764168q0.703125 -0.0017204285 1.101532 -0.36206818q0.41404724 -0.3603897 0.4398346 -1.0167046l4.3593597 -0.010658264q0.36421204 1.561615 0.011001587 2.749981q-0.35964966 1.17276 -1.4543762 1.8160629q-1.0791168 0.6432648 -2.7978668 0.64746475q-1.9999847 0.004890442 -3.832901 -0.8343811q-1.8237457 -0.85491943 -3.2531738 -2.382679q-1.4137878 -1.5277977 -2.2206116 -3.4789581zm24.802383 4.5643845l-4.4062347 0.01076889l0.16993713 1.9995918l-4.3437347 0.0106163025l-0.6259918 -13.201633l4.7812347 -0.011688232l10.266586 13.17807l-4.3593597 0.010654449l-1.4824371 -1.9963799zm-2.3000793 -3.1037636l-2.7043152 -3.6652756l0.31370544 3.6711197l2.3906097 -0.005844116zm14.286652 5.1994667q-2.359375 0.0057678223 -4.364517 -1.0987091q-1.9895172 -1.1045151 -3.0144196 -3.2426414l4.4062347 -0.01076889q0.5649414 1.1392441 1.4868164 1.1369934q0.328125 -8.049011E-4 0.49795532 -0.1574707q0.1633606 -0.17227173 0.027816772 -0.50006866q-0.19363403 -0.46827698 -0.80981445 -0.7480202q-0.6226349 -0.29535675 -1.8400421 -0.6673813q-1.4619751 -0.43392563 -2.4643707 -0.8533516q-1.0088501 -0.4350357 -1.9382324 -1.245266q-0.9358368 -0.82584 -1.4559479 -2.1214485q-0.52926636 -1.2799606 -0.24739075 -2.186901q0.29751587 -0.9069786 1.2444916 -1.378048q0.94699097 -0.47106552 2.384491 -0.47457886q2.4374847 -0.005958557 4.3240814 1.1144333q1.8865967 1.1203918 2.8038177 3.1494064l-4.4531097 0.010883331q-0.24798584 -0.56189346 -0.61042786 -0.79538345q-0.36889648 -0.24909973 -0.7438965 -0.2481842q-0.265625 6.5231323E-4 -0.3600464 0.1883812q-0.085250854 0.17208481 0.0438385 0.4842682q0.18717957 0.45267105 0.7942047 0.74806213q0.6161804 0.2797432 1.8777313 0.6829109q1.443634 0.46522522 2.4212341 0.9003334q0.98677063 0.4194641 1.8968048 1.182869q0.91918945 0.74775314 1.4032745 1.9184494q0.49700928 1.2019157 0.28781128 2.171177q-0.2000122 0.9536171 -1.1147308 1.5027313q-0.90553284 0.53346634 -2.4836578 0.537323zm5.1387634 -13.340729l5.4541016 13.189835l-4.1406097 0.010120392l-5.454117 -13.189831l4.140625 -0.010124207zm13.809891 13.294407q-1.8749847 0.004585266 -3.798935 -0.865715q-1.9083252 -0.87033844 -3.4692078 -2.4134026q-1.5452423 -1.5431023 -2.3456116 -3.4786491q-0.80036926 -1.9355507 -0.53312683 -3.4830856q0.27641296 -1.563179 1.4682922 -2.4254684q1.2010345 -0.87794113 3.0760345 -0.8825226q1.8593597 -0.004547119 3.767685 0.8657913q1.901886 0.8547287 3.4535828 2.4134407q1.5452423 1.5431023 2.3456116 3.4786491q0.80036926 1.9355507 0.53312683 3.4830818q-0.26724243 1.547535 -1.4682922 2.4254723q-1.1854095 0.877903 -3.0291595 0.88240814zm-1.5942688 -3.8554878q1.2187347 -0.0029792786 1.5678864 -0.7850876q0.34269714 -0.79771423 -0.21240234 -2.14011q-0.56155396 -1.3580055 -1.5626068 -2.1524353q-1.0010529 -0.7944336 -2.2198029 -0.7914543q-1.2499847 0.0030555725 -1.5926819 0.8007736q-0.34268188 0.79771423 0.21885681 2.1557198q0.5550995 1.3423958 1.5561523 2.1368294q0.9945984 0.77882004 2.2445984 0.77576447zm22.462448 3.6794739l-4.1406097 0.010124207l-7.1181793 -6.6232452l2.7431946 6.633938l-4.1406097 0.010124207l-5.454117 -13.189835l4.1406097 -0.010120392l7.1633606 6.7325096l-2.7883606 -6.743206l4.1406097 -0.010120392l5.4541016 13.189831zm9.519501 -2.0232773l-4.4062195 0.010772705l0.16992188 1.9995918l-4.34375 0.0106163025l-0.62597656 -13.201633l4.7812195 -0.011688232l10.266602 13.178066l-4.359375 0.010658264l-1.4824219 -1.9963837zm-2.3000793 -3.1037598l-2.7043152 -3.6652756l0.3136902 3.6711197l2.390625 -0.005844116zm11.922028 1.9396095l3.984375 -0.009738922l1.2973633 3.1374626l-8.125 0.019863129l-5.4541016 -13.189831l4.140625 -0.010124207l4.1567383 10.052368zm9.440033 -0.023075104l3.984375 -0.009738922l1.2973633 3.1374626l-8.1249695 0.019859314l-5.454132 -13.189831l4.140625 -0.010120392l4.1567383 10.052368zm13.830139 -10.09634l-0.9546814 9.189861l1.6588135 4.0115814l-4.140625 0.010124207l-1.6588135 -4.0115814l-8.529633 -9.166676l4.7343445 -0.0115737915l4.039276 4.662014l0.17947388 -4.672329l4.6718445 -0.011421204z" fill-rule="nonzero"/></g></svg>